<?xml version="1.0"?>
<!-- Generated by SVGo -->
<svg width="240.602mm" height="122.000mm"
     viewBox="0.000 0.000 240.602 122.000"
     xmlns="http://www.w3.org/2000/svg" 
     xmlns:xlink="http://www.w3.org/1999/xlink">
<polygon points="232.602,5.001 232.837,5.010 233.071,5.037 233.302,5.083 233.529,5.147 233.750,5.229 233.963,5.327 234.169,5.443 234.365,5.573 234.550,5.719 234.723,5.879 234.883,6.052 235.029,6.237 235.159,6.433 235.275,6.639 235.373,6.852 235.455,7.073 235.519,7.300 235.565,7.531 235.592,7.765 235.602,8.001 235.602,114.000 235.592,114.235 235.565,114.469 235.519,114.700 235.455,114.927 235.373,115.148 235.275,115.361 235.159,115.567 235.029,115.763 234.883,115.948 234.723,116.121 234.550,116.281 234.365,116.427 234.169,116.557 233.963,116.673 233.750,116.771 233.529,116.853 233.302,116.917 233.071,116.963 232.837,116.990 232.602,117.000 8.001,117.000 7.765,116.990 7.531,116.963 7.300,116.917 7.073,116.853 6.852,116.771 6.639,116.673 6.433,116.557 6.237,116.427 6.052,116.281 5.879,116.121 5.719,115.948 5.573,115.763 5.443,115.567 5.327,115.361 5.229,115.148 5.147,114.927 5.083,114.700 5.037,114.469 5.010,114.235 5.000,113.999 5.001,8.001 5.010,7.765 5.037,7.531 5.083,7.300 5.147,7.073 5.229,6.852 5.327,6.639 5.443,6.433 5.573,6.237 5.719,6.052 5.879,5.879 6.052,5.719 6.237,5.573 6.433,5.443 6.639,5.327 6.852,5.229 7.073,5.147 7.300,5.083 7.531,5.037 7.765,5.010 8.001,5.000" style="fill:none;stroke-width:0.050000mm;stroke:black"/>
<polygon points="113.301,99.474 113.301,100.474 112.501,100.474 112.501,103.574 113.301,103.574 113.301,104.174 111.775,104.174 111.775,100.944 110.051,100.944 110.051,100.024 106.751,100.024 106.751,100.944 105.025,100.944 105.025,104.174 104.200,104.174 104.200,106.974 105.025,106.974 105.025,113.244 106.751,113.244 106.751,114.224 110.051,114.224 110.051,113.244 111.775,113.244 111.775,108.774 113.301,108.774 113.301,109.374 112.501,109.374 112.501,112.474 113.301,112.474 113.301,113.474 127.301,113.474 127.301,112.474 128.101,112.474 128.101,109.374 127.301,109.374 127.301,108.774 128.825,108.774 128.825,113.244 130.551,113.244 130.551,114.224 133.851,114.224 133.851,113.244 135.576,113.244 135.576,106.974 136.401,106.974 136.401,104.174 135.576,104.174 135.576,100.944 133.851,100.944 133.851,100.024 130.551,100.024 130.551,100.944 128.825,100.944 128.825,104.174 127.301,104.174 127.301,103.574 128.101,103.574 128.101,100.474 127.301,100.474 127.301,99.474" style="fill:none;stroke-width:0.050000mm;stroke:black"/>
<polygon points="8.526,99.474 8.526,100.474 7.726,100.474 7.726,103.574 8.526,103.574 8.526,109.374 7.726,109.374 7.726,112.474 8.526,112.474 8.526,113.474 22.526,113.474 22.526,112.474 23.326,112.474 23.326,109.374 22.526,109.374 22.526,103.574 23.326,103.574 23.326,100.474 22.526,100.474 22.526,99.474" style="fill:none;stroke-width:0.050000mm;stroke:black"/>
<polygon points="27.576,99.474 27.576,100.474 26.776,100.474 26.776,103.574 27.576,103.574 27.576,109.374 26.776,109.374 26.776,112.474 27.576,112.474 27.576,113.474 41.576,113.474 41.576,112.474 42.376,112.474 42.376,109.374 41.576,109.374 41.576,103.574 42.376,103.574 42.376,100.474 41.576,100.474 41.576,99.474" style="fill:none;stroke-width:0.050000mm;stroke:black"/>
<polygon points="46.626,99.474 46.626,100.474 45.826,100.474 45.826,103.574 46.626,103.574 46.626,109.374 45.826,109.374 45.826,112.474 46.626,112.474 46.626,113.474 60.626,113.474 60.626,112.474 61.426,112.474 61.426,109.374 60.626,109.374 60.626,103.574 61.426,103.574 61.426,100.474 60.626,100.474 60.626,99.474" style="fill:none;stroke-width:0.050000mm;stroke:black"/>
<polygon points="65.676,99.474 65.676,100.474 64.876,100.474 64.876,103.574 65.676,103.574 65.676,109.374 64.876,109.374 64.876,112.474 65.676,112.474 65.676,113.474 79.676,113.474 79.676,112.474 80.476,112.474 80.476,109.374 79.676,109.374 79.676,103.574 80.476,103.574 80.476,100.474 79.676,100.474 79.676,99.474" style="fill:none;stroke-width:0.050000mm;stroke:black"/>
<polygon points="84.726,99.474 84.726,100.474 83.926,100.474 83.926,103.574 84.726,103.574 84.726,109.374 83.926,109.374 83.926,112.474 84.726,112.474 84.726,113.474 98.726,113.474 98.726,112.474 99.525,112.474 99.525,109.374 98.726,109.374 98.726,103.574 99.525,103.574 99.525,100.474 98.726,100.474 98.726,99.474" style="fill:none;stroke-width:0.050000mm;stroke:black"/>
<polygon points="141.876,99.474 141.876,100.474 141.076,100.474 141.076,103.574 141.876,103.574 141.876,109.374 141.076,109.374 141.076,112.474 141.876,112.474 141.876,113.474 155.876,113.474 155.876,112.474 156.676,112.474 156.676,109.374 155.876,109.374 155.876,103.574 156.676,103.574 156.676,100.474 155.876,100.474 155.876,99.474" style="fill:none;stroke-width:0.050000mm;stroke:black"/>
<polygon points="160.926,99.474 160.926,100.474 160.126,100.474 160.126,103.574 160.926,103.574 160.926,109.374 160.126,109.374 160.126,112.474 160.926,112.474 160.926,113.474 174.926,113.474 174.926,112.474 175.726,112.474 175.726,109.374 174.926,109.374 174.926,103.574 175.726,103.574 175.726,100.474 174.926,100.474 174.926,99.474" style="fill:none;stroke-width:0.050000mm;stroke:black"/>
<polygon points="179.976,99.474 179.976,100.474 179.176,100.474 179.176,103.574 179.976,103.574 179.976,109.374 179.176,109.374 179.176,112.474 179.976,112.474 179.976,113.474 193.976,113.474 193.976,112.474 194.776,112.474 194.776,109.374 193.976,109.374 193.976,103.574 194.776,103.574 194.776,100.474 193.976,100.474 193.976,99.474" style="fill:none;stroke-width:0.050000mm;stroke:black"/>
<polygon points="199.026,99.474 199.026,100.474 198.226,100.474 198.226,103.574 199.026,103.574 199.026,109.374 198.226,109.374 198.226,112.474 199.026,112.474 199.026,113.474 213.026,113.474 213.026,112.474 213.826,112.474 213.826,109.374 213.026,109.374 213.026,103.574 213.826,103.574 213.826,100.474 213.026,100.474 213.026,99.474" style="fill:none;stroke-width:0.050000mm;stroke:black"/>
<polygon points="218.076,99.474 218.076,100.474 217.276,100.474 217.276,103.574 218.076,103.574 218.076,109.374 217.276,109.374 217.276,112.474 218.076,112.474 218.076,113.474 232.076,113.474 232.076,112.474 232.876,112.474 232.876,109.374 232.076,109.374 232.076,103.574 232.876,103.574 232.876,100.474 232.076,100.474 232.076,99.474" style="fill:none;stroke-width:0.050000mm;stroke:black"/>
<polygon points="8.526,80.424 8.526,81.424 7.726,81.424 7.726,84.524 8.526,84.524 8.526,90.324 7.726,90.324 7.726,93.424 8.526,93.424 8.526,94.424 22.526,94.424 22.526,93.424 23.326,93.424 23.326,90.324 22.526,90.324 22.526,84.524 23.326,84.524 23.326,81.424 22.526,81.424 22.526,80.424" style="fill:none;stroke-width:0.050000mm;stroke:black"/>
<polygon points="27.576,80.424 27.576,81.424 26.776,81.424 26.776,84.524 27.576,84.524 27.576,90.324 26.776,90.324 26.776,93.424 27.576,93.424 27.576,94.424 41.576,94.424 41.576,93.424 42.376,93.424 42.376,90.324 41.576,90.324 41.576,84.524 42.376,84.524 42.376,81.424 41.576,81.424 41.576,80.424" style="fill:none;stroke-width:0.050000mm;stroke:black"/>
<polygon points="46.626,80.424 46.626,81.424 45.826,81.424 45.826,84.524 46.626,84.524 46.626,90.324 45.826,90.324 45.826,93.424 46.626,93.424 46.626,94.424 60.626,94.424 60.626,93.424 61.426,93.424 61.426,90.324 60.626,90.324 60.626,84.524 61.426,84.524 61.426,81.424 60.626,81.424 60.626,80.424" style="fill:none;stroke-width:0.050000mm;stroke:black"/>
<polygon points="65.676,80.424 65.676,81.424 64.876,81.424 64.876,84.524 65.676,84.524 65.676,90.324 64.876,90.324 64.876,93.424 65.676,93.424 65.676,94.424 79.676,94.424 79.676,93.424 80.476,93.424 80.476,90.324 79.676,90.324 79.676,84.524 80.476,84.524 80.476,81.424 79.676,81.424 79.676,80.424" style="fill:none;stroke-width:0.050000mm;stroke:black"/>
<polygon points="84.726,80.424 84.726,81.424 83.926,81.424 83.926,84.524 84.726,84.524 84.726,90.324 83.926,90.324 83.926,93.424 84.726,93.424 84.726,94.424 98.726,94.424 98.726,93.424 99.525,93.424 99.525,90.324 98.726,90.324 98.726,84.524 99.525,84.524 99.525,81.424 98.726,81.424 98.726,80.424" style="fill:none;stroke-width:0.050000mm;stroke:black"/>
<polygon points="103.775,80.424 103.775,81.424 102.976,81.424 102.976,84.524 103.775,84.524 103.775,90.324 102.976,90.324 102.976,93.424 103.775,93.424 103.775,94.424 117.775,94.424 117.775,93.424 118.575,93.424 118.575,90.324 117.775,90.324 117.775,84.524 118.575,84.524 118.575,81.424 117.775,81.424 117.775,80.424" style="fill:none;stroke-width:0.050000mm;stroke:black"/>
<polygon points="122.825,80.424 122.825,81.424 122.025,81.424 122.025,84.524 122.825,84.524 122.825,90.324 122.025,90.324 122.025,93.424 122.825,93.424 122.825,94.424 136.826,94.424 136.826,93.424 137.626,93.424 137.626,90.324 136.826,90.324 136.826,84.524 137.626,84.524 137.626,81.424 136.826,81.424 136.826,80.424" style="fill:none;stroke-width:0.050000mm;stroke:black"/>
<polygon points="141.876,80.424 141.876,81.424 141.076,81.424 141.076,84.524 141.876,84.524 141.876,90.324 141.076,90.324 141.076,93.424 141.876,93.424 141.876,94.424 155.876,94.424 155.876,93.424 156.676,93.424 156.676,90.324 155.876,90.324 155.876,84.524 156.676,84.524 156.676,81.424 155.876,81.424 155.876,80.424" style="fill:none;stroke-width:0.050000mm;stroke:black"/>
<polygon points="160.926,80.424 160.926,81.424 160.126,81.424 160.126,84.524 160.926,84.524 160.926,90.324 160.126,90.324 160.126,93.424 160.926,93.424 160.926,94.424 174.926,94.424 174.926,93.424 175.726,93.424 175.726,90.324 174.926,90.324 174.926,84.524 175.726,84.524 175.726,81.424 174.926,81.424 174.926,80.424" style="fill:none;stroke-width:0.050000mm;stroke:black"/>
<polygon points="179.976,80.424 179.976,81.424 179.176,81.424 179.176,84.524 179.976,84.524 179.976,90.324 179.176,90.324 179.176,93.424 179.976,93.424 179.976,94.424 193.976,94.424 193.976,93.424 194.776,93.424 194.776,90.324 193.976,90.324 193.976,84.524 194.776,84.524 194.776,81.424 193.976,81.424 193.976,80.424" style="fill:none;stroke-width:0.050000mm;stroke:black"/>
<polygon points="199.026,80.424 199.026,81.424 198.226,81.424 198.226,84.524 199.026,84.524 199.026,90.324 198.226,90.324 198.226,93.424 199.026,93.424 199.026,94.424 213.026,94.424 213.026,93.424 213.826,93.424 213.826,90.324 213.026,90.324 213.026,84.524 213.826,84.524 213.826,81.424 213.026,81.424 213.026,80.424" style="fill:none;stroke-width:0.050000mm;stroke:black"/>
<polygon points="218.076,80.424 218.076,81.424 217.276,81.424 217.276,84.524 218.076,84.524 218.076,90.324 217.276,90.324 217.276,93.424 218.076,93.424 218.076,94.424 232.076,94.424 232.076,93.424 232.876,93.424 232.876,90.324 232.076,90.324 232.076,84.524 232.876,84.524 232.876,81.424 232.076,81.424 232.076,80.424" style="fill:none;stroke-width:0.050000mm;stroke:black"/>
<polygon points="8.526,61.374 8.526,62.374 7.726,62.374 7.726,65.474 8.526,65.474 8.526,71.274 7.726,71.274 7.726,74.374 8.526,74.374 8.526,75.374 22.526,75.374 22.526,74.374 23.326,74.374 23.326,71.274 22.526,71.274 22.526,65.474 23.326,65.474 23.326,62.374 22.526,62.374 22.526,61.374" style="fill:none;stroke-width:0.050000mm;stroke:black"/>
<polygon points="27.576,61.374 27.576,62.374 26.776,62.374 26.776,65.474 27.576,65.474 27.576,71.274 26.776,71.274 26.776,74.374 27.576,74.374 27.576,75.374 41.576,75.374 41.576,74.374 42.376,74.374 42.376,71.274 41.576,71.274 41.576,65.474 42.376,65.474 42.376,62.374 41.576,62.374 41.576,61.374" style="fill:none;stroke-width:0.050000mm;stroke:black"/>
<polygon points="46.626,61.374 46.626,62.374 45.826,62.374 45.826,65.474 46.626,65.474 46.626,71.274 45.826,71.274 45.826,74.374 46.626,74.374 46.626,75.374 60.626,75.374 60.626,74.374 61.426,74.374 61.426,71.274 60.626,71.274 60.626,65.474 61.426,65.474 61.426,62.374 60.626,62.374 60.626,61.374" style="fill:none;stroke-width:0.050000mm;stroke:black"/>
<polygon points="65.676,61.374 65.676,62.374 64.876,62.374 64.876,65.474 65.676,65.474 65.676,71.274 64.876,71.274 64.876,74.374 65.676,74.374 65.676,75.374 79.676,75.374 79.676,74.374 80.476,74.374 80.476,71.274 79.676,71.274 79.676,65.474 80.476,65.474 80.476,62.374 79.676,62.374 79.676,61.374" style="fill:none;stroke-width:0.050000mm;stroke:black"/>
<polygon points="84.726,61.374 84.726,62.374 83.926,62.374 83.926,65.474 84.726,65.474 84.726,71.274 83.926,71.274 83.926,74.374 84.726,74.374 84.726,75.374 98.726,75.374 98.726,74.374 99.525,74.374 99.525,71.274 98.726,71.274 98.726,65.474 99.525,65.474 99.525,62.374 98.726,62.374 98.726,61.374" style="fill:none;stroke-width:0.050000mm;stroke:black"/>
<polygon points="103.775,61.374 103.775,62.374 102.976,62.374 102.976,65.474 103.775,65.474 103.775,71.274 102.976,71.274 102.976,74.374 103.775,74.374 103.775,75.374 117.775,75.374 117.775,74.374 118.575,74.374 118.575,71.274 117.775,71.274 117.775,65.474 118.575,65.474 118.575,62.374 117.775,62.374 117.775,61.374" style="fill:none;stroke-width:0.050000mm;stroke:black"/>
<polygon points="122.825,61.374 122.825,62.374 122.025,62.374 122.025,65.474 122.825,65.474 122.825,71.274 122.025,71.274 122.025,74.374 122.825,74.374 122.825,75.374 136.826,75.374 136.826,74.374 137.626,74.374 137.626,71.274 136.826,71.274 136.826,65.474 137.626,65.474 137.626,62.374 136.826,62.374 136.826,61.374" style="fill:none;stroke-width:0.050000mm;stroke:black"/>
<polygon points="141.876,61.374 141.876,62.374 141.076,62.374 141.076,65.474 141.876,65.474 141.876,71.274 141.076,71.274 141.076,74.374 141.876,74.374 141.876,75.374 155.876,75.374 155.876,74.374 156.676,74.374 156.676,71.274 155.876,71.274 155.876,65.474 156.676,65.474 156.676,62.374 155.876,62.374 155.876,61.374" style="fill:none;stroke-width:0.050000mm;stroke:black"/>
<polygon points="160.926,61.374 160.926,62.374 160.126,62.374 160.126,65.474 160.926,65.474 160.926,71.274 160.126,71.274 160.126,74.374 160.926,74.374 160.926,75.374 174.926,75.374 174.926,74.374 175.726,74.374 175.726,71.274 174.926,71.274 174.926,65.474 175.726,65.474 175.726,62.374 174.926,62.374 174.926,61.374" style="fill:none;stroke-width:0.050000mm;stroke:black"/>
<polygon points="179.976,61.374 179.976,62.374 179.176,62.374 179.176,65.474 179.976,65.474 179.976,71.274 179.176,71.274 179.176,74.374 179.976,74.374 179.976,75.374 193.976,75.374 193.976,74.374 194.776,74.374 194.776,71.274 193.976,71.274 193.976,65.474 194.776,65.474 194.776,62.374 193.976,62.374 193.976,61.374" style="fill:none;stroke-width:0.050000mm;stroke:black"/>
<polygon points="199.026,61.374 199.026,62.374 198.226,62.374 198.226,65.474 199.026,65.474 199.026,71.274 198.226,71.274 198.226,74.374 199.026,74.374 199.026,75.374 213.026,75.374 213.026,74.374 213.826,74.374 213.826,71.274 213.026,71.274 213.026,65.474 213.826,65.474 213.826,62.374 213.026,62.374 213.026,61.374" style="fill:none;stroke-width:0.050000mm;stroke:black"/>
<polygon points="218.076,61.374 218.076,62.374 217.276,62.374 217.276,65.474 218.076,65.474 218.076,71.274 217.276,71.274 217.276,74.374 218.076,74.374 218.076,75.374 232.076,75.374 232.076,74.374 232.876,74.374 232.876,71.274 232.076,71.274 232.076,65.474 232.876,65.474 232.876,62.374 232.076,62.374 232.076,61.374" style="fill:none;stroke-width:0.050000mm;stroke:black"/>
<polygon points="8.526,42.324 8.526,43.324 7.726,43.324 7.726,46.424 8.526,46.424 8.526,52.224 7.726,52.224 7.726,55.324 8.526,55.324 8.526,56.324 22.526,56.324 22.526,55.324 23.326,55.324 23.326,52.224 22.526,52.224 22.526,46.424 23.326,46.424 23.326,43.324 22.526,43.324 22.526,42.324" style="fill:none;stroke-width:0.050000mm;stroke:black"/>
<polygon points="27.576,42.324 27.576,43.324 26.776,43.324 26.776,46.424 27.576,46.424 27.576,52.224 26.776,52.224 26.776,55.324 27.576,55.324 27.576,56.324 41.576,56.324 41.576,55.324 42.376,55.324 42.376,52.224 41.576,52.224 41.576,46.424 42.376,46.424 42.376,43.324 41.576,43.324 41.576,42.324" style="fill:none;stroke-width:0.050000mm;stroke:black"/>
<polygon points="46.626,42.324 46.626,43.324 45.826,43.324 45.826,46.424 46.626,46.424 46.626,52.224 45.826,52.224 45.826,55.324 46.626,55.324 46.626,56.324 60.626,56.324 60.626,55.324 61.426,55.324 61.426,52.224 60.626,52.224 60.626,46.424 61.426,46.424 61.426,43.324 60.626,43.324 60.626,42.324" style="fill:none;stroke-width:0.050000mm;stroke:black"/>
<polygon points="65.676,42.324 65.676,43.324 64.876,43.324 64.876,46.424 65.676,46.424 65.676,52.224 64.876,52.224 64.876,55.324 65.676,55.324 65.676,56.324 79.676,56.324 79.676,55.324 80.476,55.324 80.476,52.224 79.676,52.224 79.676,46.424 80.476,46.424 80.476,43.324 79.676,43.324 79.676,42.324" style="fill:none;stroke-width:0.050000mm;stroke:black"/>
<polygon points="84.726,42.324 84.726,43.324 83.926,43.324 83.926,46.424 84.726,46.424 84.726,52.224 83.926,52.224 83.926,55.324 84.726,55.324 84.726,56.324 98.726,56.324 98.726,55.324 99.525,55.324 99.525,52.224 98.726,52.224 98.726,46.424 99.525,46.424 99.525,43.324 98.726,43.324 98.726,42.324" style="fill:none;stroke-width:0.050000mm;stroke:black"/>
<polygon points="103.775,42.324 103.775,43.324 102.976,43.324 102.976,46.424 103.775,46.424 103.775,52.224 102.976,52.224 102.976,55.324 103.775,55.324 103.775,56.324 117.775,56.324 117.775,55.324 118.575,55.324 118.575,52.224 117.775,52.224 117.775,46.424 118.575,46.424 118.575,43.324 117.775,43.324 117.775,42.324" style="fill:none;stroke-width:0.050000mm;stroke:black"/>
<polygon points="122.825,42.324 122.825,43.324 122.025,43.324 122.025,46.424 122.825,46.424 122.825,52.224 122.025,52.224 122.025,55.324 122.825,55.324 122.825,56.324 136.826,56.324 136.826,55.324 137.626,55.324 137.626,52.224 136.826,52.224 136.826,46.424 137.626,46.424 137.626,43.324 136.826,43.324 136.826,42.324" style="fill:none;stroke-width:0.050000mm;stroke:black"/>
<polygon points="141.876,42.324 141.876,43.324 141.076,43.324 141.076,46.424 141.876,46.424 141.876,52.224 141.076,52.224 141.076,55.324 141.876,55.324 141.876,56.324 155.876,56.324 155.876,55.324 156.676,55.324 156.676,52.224 155.876,52.224 155.876,46.424 156.676,46.424 156.676,43.324 155.876,43.324 155.876,42.324" style="fill:none;stroke-width:0.050000mm;stroke:black"/>
<polygon points="160.926,42.324 160.926,43.324 160.126,43.324 160.126,46.424 160.926,46.424 160.926,52.224 160.126,52.224 160.126,55.324 160.926,55.324 160.926,56.324 174.926,56.324 174.926,55.324 175.726,55.324 175.726,52.224 174.926,52.224 174.926,46.424 175.726,46.424 175.726,43.324 174.926,43.324 174.926,42.324" style="fill:none;stroke-width:0.050000mm;stroke:black"/>
<polygon points="179.976,42.324 179.976,43.324 179.176,43.324 179.176,46.424 179.976,46.424 179.976,52.224 179.176,52.224 179.176,55.324 179.976,55.324 179.976,56.324 193.976,56.324 193.976,55.324 194.776,55.324 194.776,52.224 193.976,52.224 193.976,46.424 194.776,46.424 194.776,43.324 193.976,43.324 193.976,42.324" style="fill:none;stroke-width:0.050000mm;stroke:black"/>
<polygon points="199.026,42.324 199.026,43.324 198.226,43.324 198.226,46.424 199.026,46.424 199.026,52.224 198.226,52.224 198.226,55.324 199.026,55.324 199.026,56.324 213.026,56.324 213.026,55.324 213.826,55.324 213.826,52.224 213.026,52.224 213.026,46.424 213.826,46.424 213.826,43.324 213.026,43.324 213.026,42.324" style="fill:none;stroke-width:0.050000mm;stroke:black"/>
<polygon points="218.076,42.324 218.076,43.324 217.276,43.324 217.276,46.424 218.076,46.424 218.076,52.224 217.276,52.224 217.276,55.324 218.076,55.324 218.076,56.324 232.076,56.324 232.076,55.324 232.876,55.324 232.876,52.224 232.076,52.224 232.076,46.424 232.876,46.424 232.876,43.324 232.076,43.324 232.076,42.324" style="fill:none;stroke-width:0.050000mm;stroke:black"/>
</svg>
